<svg viewBox="0 0 320 460" xmlns="http://www.w3.org/2000/svg" role="img" aria-label="Sur mesure">
  <defs>
    <linearGradient id="bc" x1="0" y1="0" x2="0" y2="1">
      <stop offset="0" stop-color="#33526E"/><stop offset="1" stop-color="#1E3853"/>
    </linearGradient>
  </defs>
  <rect width="320" height="460" fill="url(#bc)"/>
  <path d="M0 460 L0 372 Q90 322 160 356 Q230 390 320 344 L320 460 Z" fill="#16293D" opacity=".6"/>
  <g stroke="#EBD9A8" stroke-width="4" stroke-linejoin="round" fill="#E7C06A">
    <rect x="96" y="300" width="128" height="54" rx="8"/>
    <rect x="110" y="256" width="100" height="48" rx="8" fill="#EFCE84"/>
    <rect x="124" y="216" width="72" height="44" rx="8" fill="#F4DA9A"/>
    <path d="M160 216 l0 -26" fill="none" stroke-width="4"/>
    <circle cx="160" cy="184" r="8" fill="#E06A8A" stroke="#B84C6A"/>
  </g>
  <g fill="#F3E6C0">
    <path d="M60 120 l6 16 l16 6 l-16 6 l-6 16 l-6 -16 l-16 -6 l16 -6 Z" opacity=".9"/>
    <path d="M258 160 l5 13 l13 5 l-13 5 l-5 13 l-5 -13 l-13 -5 l13 -5 Z" opacity=".8"/>
    <path d="M240 90 l4 10 l10 4 l-10 4 l-4 10 l-4 -10 l-10 -4 l10 -4 Z" opacity=".7"/>
    <circle cx="90" cy="230" r="4" opacity=".6"/><circle cx="235" cy="250" r="4" opacity=".6"/>
  </g>
</svg>
